<svg width="24" height="24" viewBox="0 0 24 24" fill="current" xmlns="http://www.w3.org/2000/svg">
<path fill-rule="evenodd" clip-rule="evenodd" d="M10.8382 22.9394C11.22 22.9795 11.6076 23 12 23C15.5952 23 18.7876 21.2752 20.7948 18.608C20.8371 18.5609 20.8744 18.5102 20.9066 18.4568C22.2234 16.6435 23 14.4124 23 12C23 10.4585 22.6829 8.99101 22.1104 7.65927C22.0958 7.61907 22.0788 7.58008 22.0594 7.54247C20.5165 4.06585 17.2242 1.53796 13.2998 1.07598C13.2541 1.06764 13.2081 1.06256 13.1622 1.06067C12.7803 1.02056 12.3925 1 12 1C8.40441 1 5.21174 2.72514 3.20456 5.39286C3.16283 5.43947 3.12594 5.48954 3.09409 5.54228C1.77686 7.35576 1 9.58716 1 12C1 13.5416 1.31714 15.0092 1.88973 16.341C1.90424 16.381 1.92123 16.4198 1.94051 16.4573C3.4833 19.934 6.77559 22.462 10.7001 22.924C10.746 22.9324 10.7921 22.9375 10.8382 22.9394ZM11.4221 7L13.6453 3.15005C16.0739 3.5987 18.1607 5.0224 19.4845 7H14.3249C14.3145 6.99984 14.3041 6.99984 14.2937 7H11.4221ZM7.38003 10.0003L8.81542 7.51463C8.82064 7.50526 8.826 7.49598 8.8315 7.48679L11.4115 3.01893C8.91159 3.18028 6.68965 4.36233 5.15813 6.15262L7.38003 10.0003ZM6.52277 12.5152L7.95766 15H3.51212C3.18046 14.0617 3 13.0519 3 12C3 10.5706 3.33323 9.21904 3.92623 8.01874L6.50624 12.4866C6.51159 12.4962 6.5171 12.5057 6.52277 12.5152ZM12.578 17H9.70802C9.69653 17.0002 9.68506 17.0002 9.67359 17H4.51555C5.83933 18.9776 7.92613 20.4013 10.3548 20.85L12.578 17ZM13.7329 15H10.2672L8.53479 12L10.2672 9H13.7329L15.4653 12L13.7329 15ZM15.1718 16.5078C15.1751 16.5022 15.1783 16.4966 15.1815 16.4909L16.6201 13.9997L18.8419 17.8473C17.3104 19.6376 15.0885 20.8197 12.5886 20.9811L15.1718 16.5078ZM17.4939 11.5136L20.0738 15.9812C20.6668 14.7809 21 13.4294 21 12C21 10.9481 20.8195 9.93834 20.4879 9H16.0424L17.4773 11.4847C17.483 11.4943 17.4885 11.5039 17.4939 11.5136Z"/>
</svg>
