<svg width="253" height="48" viewBox="0 0 253 48" fill="none" xmlns="http://www.w3.org/2000/svg">
<path d="M112.124 5.95203H90.2177V41.76H100.402V34.656H112.124C120.098 34.656 126.535 28.224 126.535 20.352C126.439 12.384 120.002 5.95203 112.124 5.95203ZM116.351 20.352C116.351 23.616 113.661 26.304 110.394 26.304H100.498V14.4H110.394C113.661 14.4 116.351 17.088 116.351 20.352Z" fill="white"/>
<path d="M167.657 10.752H165.447L165.063 12H163.718L166.024 5.95203H167.176L169.482 12H168.137L167.657 10.752ZM165.831 9.79203H167.369L166.6 7.48803L165.831 9.79203Z" fill="white"/>
<path d="M174.286 6.91203H171.596V12H170.251V5.95203H174.286V6.91203Z" fill="white"/>
<path d="M178.994 9.31203H176.592V10.944H179.378V12H175.343V5.95203H179.378V6.91203H176.592V8.35203H178.994V9.31203Z" fill="white"/>
<path d="M185.335 12H184.086V9.40803H181.684V12H180.435V5.95203H181.684V8.35203H184.086V5.95203H185.335V12Z" fill="white"/>
<path d="M191.196 6.91203H189.371V12H188.122V6.91203H186.2V5.95203H191.196V6.91203Z" fill="white"/>
<path d="M196.865 9.98401C196.865 10.56 196.577 11.136 196.096 11.52C195.616 11.904 195.039 12.096 194.367 12.096C193.694 12.096 193.022 11.808 192.541 11.328C192.061 10.752 191.869 9.98401 191.869 9.12001V8.73601C191.869 8.16001 191.965 7.68001 192.157 7.20001C192.349 6.81601 192.637 6.43201 193.022 6.14401C193.406 5.95201 193.886 5.76001 194.367 5.76001C194.943 5.76001 195.616 5.95201 196.096 6.33601C196.577 6.72001 196.769 7.29601 196.865 7.96801H195.616C195.616 7.68001 195.52 7.39201 195.327 7.10401C195.039 6.91201 194.751 6.81601 194.463 6.81601C194.078 6.81601 193.694 6.91201 193.502 7.29601C193.31 7.68001 193.118 8.16001 193.214 8.73601V9.21601C193.214 9.69601 193.31 10.176 193.502 10.656C193.694 10.944 194.078 11.136 194.463 11.136C194.751 11.136 195.039 11.04 195.327 10.848C195.52 10.656 195.616 10.368 195.616 9.98401H196.865V9.98401Z" fill="white"/>
<path d="M202.437 6.91203H200.516V12H199.267V6.91203H197.441V5.95203H202.437V6.91203Z" fill="white"/>
<path d="M203.398 12V5.95203H205.512C206.088 5.95203 206.665 6.04803 207.241 6.33603C207.626 6.62403 207.818 7.10403 207.818 7.58403C207.818 7.87203 207.722 8.16003 207.626 8.35203C207.433 8.54403 207.241 8.73603 206.953 8.83203C207.241 8.92803 207.529 9.02403 207.722 9.31203C207.914 9.60003 208.01 9.88803 208.01 10.176C208.01 10.656 207.818 11.136 207.433 11.52C206.953 11.808 206.376 12 205.8 12H203.398V12ZM204.647 8.44803H205.608C206.28 8.44803 206.569 8.16003 206.569 7.68003C206.569 7.48803 206.473 7.20003 206.28 7.10403C206.088 7.00803 205.8 6.91203 205.512 6.91203H204.551V8.44803H204.647ZM204.647 9.31203V10.944H205.704C205.992 10.944 206.184 10.848 206.377 10.752C206.569 10.56 206.665 10.368 206.665 10.176C206.665 9.60003 206.376 9.31203 205.8 9.31203H204.647Z" fill="white"/>
<path d="M214.159 9.12001C214.159 9.69601 214.063 10.176 213.871 10.656C213.678 11.04 213.39 11.424 213.006 11.712C212.622 12 212.141 12.096 211.661 12.096C211.18 12.096 210.7 12 210.316 11.712C209.931 11.424 209.547 11.136 209.355 10.656C209.163 10.176 208.971 9.60001 209.067 9.12001V8.83201C209.067 8.25601 209.163 7.77601 209.355 7.20001C209.547 6.72001 209.931 6.43201 210.316 6.14401C210.7 5.85601 211.18 5.76001 211.661 5.76001C212.141 5.76001 212.622 5.85601 213.006 6.14401C213.39 6.43201 213.678 6.72001 213.871 7.20001C214.063 7.68001 214.255 8.25601 214.159 8.73601V9.12001ZM212.91 8.83201C212.91 8.35201 212.814 7.77601 212.526 7.39201C212.141 6.81601 211.373 6.72001 210.796 7.20001C210.7 7.29601 210.604 7.29601 210.604 7.39201C210.316 7.87201 210.22 8.35201 210.22 8.83201V9.12001C210.22 9.60001 210.316 10.176 210.604 10.56C210.796 10.848 211.18 11.04 211.565 11.04C211.949 11.04 212.333 10.848 212.526 10.56C212.814 10.08 212.91 9.60001 212.91 9.12001V8.83201Z" fill="white"/>
<path d="M169.194 26.784H167.945V21.696H165.543V26.784H164.294V20.736H169.194V26.784Z" fill="white"/>
<path d="M171.884 24.672V26.784H170.635V20.736H173.037C173.422 20.736 173.902 20.832 174.286 21.024C174.575 21.216 174.863 21.408 175.055 21.696C175.247 21.984 175.343 22.368 175.343 22.752C175.343 23.328 175.151 23.808 174.767 24.192C174.286 24.576 173.71 24.768 173.037 24.672H171.884ZM171.884 23.616H172.941C173.229 23.616 173.518 23.52 173.71 23.424C173.902 23.232 173.998 23.04 173.998 22.752C173.998 22.464 173.902 22.176 173.71 21.984C173.518 21.792 173.229 21.696 172.941 21.696H171.788L171.884 23.616Z" fill="white"/>
<path d="M181.396 23.904C181.396 24.48 181.3 24.96 181.108 25.44C180.916 25.824 180.627 26.208 180.243 26.496C179.859 26.784 179.378 26.88 178.898 26.88C177.937 26.88 177.073 26.4 176.592 25.44C176.4 24.96 176.208 24.384 176.304 23.904V23.616C176.304 23.04 176.4 22.56 176.592 22.08C176.784 21.6 177.169 21.312 177.553 21.024C177.937 20.736 178.418 20.64 178.898 20.64C179.378 20.64 179.859 20.736 180.243 21.024C180.627 21.312 181.012 21.6 181.204 22.08C181.396 22.56 181.588 23.136 181.492 23.616L181.396 23.904ZM180.147 23.616C180.147 23.136 180.051 22.56 179.763 22.176C179.571 21.888 179.186 21.696 178.802 21.696C178.418 21.696 178.033 21.888 177.841 22.176C177.553 22.656 177.457 23.136 177.457 23.616V23.904C177.457 24.384 177.553 24.864 177.841 25.344C178.226 25.92 178.994 26.016 179.571 25.632C179.667 25.536 179.763 25.44 179.859 25.344C180.147 24.864 180.243 24.384 180.243 23.904L180.147 23.616Z" fill="white"/>
<path d="M184.182 20.736L185.816 25.056L187.353 20.736H188.986V26.784H187.737V25.152L187.833 22.272L186.2 26.784H185.335L183.702 22.272L183.798 25.152V26.784H182.549V20.736H184.182Z" fill="white"/>
<path d="M191.58 22.848H192.541C193.118 22.848 193.79 23.04 194.271 23.328C194.655 23.712 194.943 24.192 194.943 24.768C194.943 25.344 194.751 25.824 194.271 26.208C193.79 26.592 193.214 26.784 192.637 26.784H190.331V20.736H191.58V22.848ZM191.58 23.904V25.824H192.541C192.829 25.824 193.118 25.728 193.31 25.536C193.502 25.344 193.598 25.056 193.598 24.864C193.598 24.576 193.502 24.384 193.31 24.192C193.118 24 192.829 23.904 192.541 23.904H191.58ZM196.769 26.784H195.52V20.736H196.769V26.784Z" fill="white"/>
<path d="M199.363 20.736V25.728H201.092V20.736H202.341V25.728H203.975V20.736H205.224V26.784H198.114V20.736H199.363Z" fill="white"/>
<path d="M211.661 20.736V26.784H210.412V21.696H208.778L208.682 23.808C208.682 24.384 208.586 24.96 208.394 25.536C208.298 25.92 208.106 26.208 207.818 26.496C207.433 26.688 207.049 26.784 206.665 26.784H206.376V25.728H206.569C206.857 25.728 207.145 25.44 207.241 25.152C207.433 24.576 207.529 24 207.529 23.424L207.625 20.64L211.661 20.736Z" fill="white"/>
<path d="M216.657 24.096H214.255V25.728H217.041V26.784H213.006V20.736H217.041V21.696H214.255V23.136H216.657V24.096Z" fill="white"/>
<path d="M222.998 26.784H221.749V24.192H219.347V26.784H218.098V20.736H219.347V23.136H221.749V20.736H222.998V26.784Z" fill="white"/>
<path d="M229.339 26.784H228.09V24.192H225.688V26.784H224.439V20.736H225.688V23.136H228.09V20.736H229.339V26.784Z" fill="white"/>
<path d="M235.776 23.904C235.776 24.48 235.68 24.96 235.392 25.44C235.2 25.824 234.912 26.208 234.527 26.496C233.375 27.264 231.837 26.88 231.069 25.728C230.973 25.632 230.973 25.536 230.876 25.44C230.684 24.96 230.492 24.384 230.588 23.904V23.616C230.588 23.04 230.684 22.56 230.876 22.08C231.069 21.6 231.453 21.312 231.837 21.024C232.702 20.544 233.663 20.544 234.527 21.024C234.912 21.312 235.296 21.6 235.488 22.08C235.68 22.56 235.776 23.136 235.776 23.616V23.904ZM234.431 23.616C234.431 23.136 234.335 22.56 234.047 22.176C233.663 21.6 232.894 21.6 232.318 21.984C232.222 22.08 232.125 22.08 232.125 22.176C231.837 22.656 231.741 23.136 231.741 23.616V23.904C231.741 24.384 231.837 24.864 232.125 25.344C232.51 25.92 233.278 26.016 233.855 25.632C233.951 25.536 234.047 25.44 234.143 25.344C234.431 24.864 234.527 24.384 234.527 23.904V23.616H234.431Z" fill="white"/>
<path d="M240.965 21.696H238.178V26.784H236.929V20.736H240.965V21.696Z" fill="white"/>
<path d="M246.729 23.904C246.729 24.48 246.633 24.96 246.441 25.44C246.249 25.92 245.865 26.208 245.48 26.496C245.096 26.784 244.616 26.88 244.135 26.88C243.655 26.88 243.174 26.784 242.79 26.496C242.406 26.208 242.022 25.92 241.829 25.44C241.637 24.96 241.445 24.384 241.445 23.904V23.616C241.445 23.04 241.541 22.56 241.733 22.08C241.925 21.6 242.31 21.312 242.694 21.024C243.559 20.544 244.52 20.544 245.384 21.024C245.769 21.312 246.153 21.6 246.345 22.08C246.537 22.56 246.633 23.136 246.633 23.616L246.729 23.904ZM245.384 23.616C245.384 23.136 245.288 22.56 245 22.176C244.616 21.6 243.847 21.6 243.271 21.984C243.174 22.08 243.078 22.08 243.078 22.176C242.79 22.656 242.694 23.136 242.694 23.616V23.904C242.694 24.384 242.79 24.864 243.078 25.344C243.463 25.92 244.231 26.016 244.808 25.632C244.904 25.536 245 25.44 245.096 25.344C245.384 24.864 245.48 24.384 245.48 23.904V23.616H245.384Z" fill="white"/>
<path d="M165.543 39.36V41.472H164.294V35.52H166.696C167.08 35.52 167.561 35.616 167.945 35.808C168.233 36 168.522 36.192 168.714 36.48C168.906 36.768 169.002 37.152 169.002 37.536C169.002 38.112 168.81 38.592 168.426 38.976C167.945 39.36 167.369 39.552 166.696 39.456L165.543 39.36ZM165.543 38.4H166.696C166.984 38.4 167.273 38.304 167.465 38.112C167.657 37.92 167.753 37.728 167.753 37.44C167.753 36.864 167.369 36.48 166.792 36.48H165.639L165.543 38.4Z" fill="white"/>
<path d="M172.749 40.32H170.539L170.155 41.568H168.81L171.02 35.52H172.173L174.478 41.568H173.133L172.749 40.32ZM170.827 39.264H172.365L171.596 36.96L170.827 39.264Z" fill="white"/>
<path d="M178.322 37.152C178.322 36.96 178.225 36.768 178.033 36.576C177.841 36.48 177.553 36.384 177.265 36.384C177.073 36.384 176.784 36.48 176.592 36.576C176.4 36.672 176.304 36.864 176.304 37.056H175.055C175.055 36.768 175.151 36.384 175.343 36.192C175.535 35.904 175.824 35.712 176.112 35.616C176.976 35.232 178.033 35.328 178.898 35.808C179.282 36.096 179.475 36.576 179.475 37.056C179.475 37.344 179.378 37.632 179.186 37.824C178.994 38.016 178.802 38.208 178.514 38.4C178.802 38.496 179.09 38.688 179.282 38.976C179.475 39.264 179.571 39.552 179.571 39.84C179.571 40.32 179.378 40.8 178.898 41.088C178.418 41.472 177.841 41.568 177.169 41.568C176.784 41.568 176.304 41.472 175.92 41.376C175.631 41.28 175.343 40.992 175.151 40.704C174.959 40.416 174.863 40.128 174.863 39.744H176.112C176.112 39.936 176.208 40.128 176.4 40.32C176.592 40.512 176.88 40.512 177.169 40.512C177.457 40.512 177.745 40.416 177.937 40.32C178.129 40.224 178.225 39.936 178.225 39.744C178.225 39.456 178.129 39.264 177.937 39.072C177.745 38.88 177.457 38.88 177.169 38.88H176.4V37.92H177.169C178.129 37.92 178.418 37.632 178.322 37.152Z" fill="white"/>
<path d="M180.916 41.568V35.52H183.029C183.606 35.52 184.182 35.616 184.759 35.904C185.143 36.192 185.335 36.672 185.335 37.152C185.335 37.44 185.239 37.728 185.143 37.92C184.951 38.112 184.759 38.304 184.471 38.4C184.759 38.496 185.047 38.592 185.239 38.88C185.431 39.168 185.527 39.456 185.527 39.744C185.527 40.224 185.335 40.704 184.951 41.088C184.471 41.376 183.894 41.568 183.318 41.568H180.916ZM182.165 38.016H183.125C183.798 38.016 184.086 37.728 184.086 37.248C184.086 37.056 183.99 36.768 183.798 36.672C183.606 36.576 183.318 36.48 183.029 36.48H182.165V38.016ZM182.165 38.88V40.512H183.222C183.51 40.512 183.702 40.416 183.894 40.32C184.086 40.224 184.182 39.936 184.182 39.744C184.182 39.168 183.894 38.88 183.318 38.88H182.165Z" fill="white"/>
<path d="M190.331 35.52H191.58V41.568H190.331V37.536L187.833 41.568H186.584V35.52H187.833V39.552L190.331 35.52Z" fill="white"/>
<path d="M197.345 36.48H195.52V41.568H194.271V36.48H192.445V35.52H197.345V36.48Z" fill="white"/>
<path d="M202.053 35.52H203.302V41.568H202.053V37.536L199.555 41.568H198.306V35.52H199.555V39.552L202.053 35.52Z" fill="white"/>
<path d="M207.433 41.568V39.36H206.376L205.32 41.568H203.974L205.32 38.976C204.743 38.688 204.359 38.016 204.359 37.344C204.359 36.864 204.551 36.288 204.935 36C205.416 35.616 205.992 35.52 206.569 35.52H208.778V41.568H207.433ZM205.608 37.44C205.608 37.728 205.704 38.016 205.896 38.208C206.088 38.4 206.376 38.4 206.569 38.4H207.433V36.48H206.569C205.896 36.48 205.608 36.768 205.608 37.44Z" fill="white"/>
<path d="M216.08 35.52L217.618 39.84L219.155 35.52H220.884V41.568H219.635V39.84L219.731 37.056L218.098 41.568H217.233L215.6 37.056L215.696 39.84V41.568H214.447V35.52H216.08Z" fill="white"/>
<path d="M227.225 38.688C227.225 39.264 227.129 39.744 226.937 40.224C226.745 40.608 226.457 40.992 226.073 41.28C225.688 41.568 225.208 41.664 224.727 41.664C224.247 41.664 223.767 41.568 223.382 41.28C222.998 40.992 222.614 40.704 222.422 40.224C222.229 39.744 222.133 39.168 222.133 38.688V38.4C222.133 37.824 222.229 37.344 222.422 36.864C222.614 36.48 222.902 36.096 223.286 35.808C223.671 35.52 224.151 35.424 224.631 35.424C225.112 35.424 225.592 35.52 225.976 35.808C226.361 36.096 226.649 36.384 226.841 36.864C227.129 37.344 227.225 37.92 227.225 38.4V38.688ZM225.976 38.4C225.976 37.92 225.88 37.344 225.592 36.96C225.208 36.384 224.439 36.384 223.863 36.768C223.767 36.864 223.671 36.864 223.671 36.96C223.382 37.344 223.286 37.92 223.286 38.4V38.688C223.286 39.168 223.382 39.648 223.671 40.128C223.863 40.416 224.247 40.608 224.631 40.608C225.016 40.608 225.4 40.416 225.592 40.128C225.88 39.648 225.976 39.168 225.976 38.688V38.4Z" fill="white"/>
<path d="M233.182 39.552C233.182 40.128 232.894 40.704 232.414 41.088C231.933 41.472 231.357 41.664 230.684 41.664C230.012 41.664 229.339 41.376 228.859 40.896C228.378 40.32 228.186 39.552 228.186 38.688V38.304C228.186 37.728 228.282 37.248 228.475 36.768C228.667 36.384 228.955 36 229.339 35.712C229.724 35.424 230.204 35.328 230.684 35.328C231.261 35.328 231.933 35.52 232.414 35.904C232.894 36.288 233.086 36.864 233.182 37.44H231.933C231.933 37.152 231.837 36.864 231.645 36.576C231.357 36.384 231.069 36.288 230.78 36.288C230.396 36.288 230.012 36.384 229.82 36.768C229.531 37.152 229.435 37.632 229.531 38.112V38.592C229.531 39.072 229.627 39.552 229.82 40.032C230.012 40.32 230.396 40.512 230.78 40.512C231.069 40.512 231.453 40.416 231.645 40.224C231.837 40.032 231.933 39.744 231.933 39.36L233.182 39.552Z" fill="white"/>
<path d="M236.257 39.072H235.584V41.568H234.335V35.52H235.584V37.92H236.161L237.602 35.52H239.139L237.218 38.304L239.331 41.568H237.89L236.257 39.072Z" fill="white"/>
<path d="M240.1 41.568V35.52H242.214C242.79 35.52 243.367 35.616 243.943 35.904C244.327 36.192 244.52 36.672 244.52 37.152C244.52 37.44 244.424 37.728 244.327 37.92C244.135 38.112 243.943 38.304 243.655 38.4C243.943 38.496 244.231 38.592 244.424 38.88C244.616 39.168 244.712 39.456 244.712 39.744C244.712 40.224 244.52 40.704 244.135 41.088C243.655 41.376 243.078 41.568 242.502 41.568H240.1ZM241.349 38.016H242.31C242.982 38.016 243.271 37.728 243.271 37.248C243.271 37.056 243.174 36.768 242.982 36.672C242.79 36.576 242.502 36.48 242.214 36.48H241.349V38.016ZM241.349 38.88V40.512H242.406C242.598 40.512 242.886 40.416 243.078 40.32C243.271 40.224 243.367 39.936 243.367 39.744C243.367 39.168 243.078 38.88 242.502 38.88H241.349Z" fill="white"/>
<path d="M247.114 37.632H248.075C248.651 37.632 249.324 37.824 249.804 38.112C250.188 38.496 250.476 38.976 250.38 39.552C250.38 40.128 250.188 40.608 249.804 40.992C249.324 41.376 248.747 41.568 248.171 41.568H245.865V35.52H247.114V37.632ZM247.114 38.688V40.512H248.075C248.363 40.512 248.651 40.512 248.843 40.32C249.035 40.128 249.131 39.84 249.131 39.648C249.131 39.36 249.035 39.168 248.843 38.976C248.651 38.784 248.363 38.688 248.075 38.688H247.114ZM252.206 41.568H250.957V35.52H252.206V41.568Z" fill="white"/>
<path d="M146.039 3.84003H145.271V44.16H146.039V3.84003Z" fill="white"/>
<path d="M50.153 5.95203V41.76H60.3373V14.4H74.2686V41.76H84.3569V5.95203H50.153Z" fill="white"/>
<path d="M44.8686 5.95203H23.6353L2.40198 41.76H13.6432L17.8706 34.656H34.6843V41.76H44.8686V5.95203ZM22.8667 26.304L34.6843 6.33603V26.304H22.8667Z" fill="white"/>
</svg>
