<svg width="113" height="40" viewBox="0 0 113 40" fill="none" xmlns="http://www.w3.org/2000/svg">
<path d="M97.3794 4.16669H78.4353V35.25H87.2427V29.0834H97.3794C104.276 29.0834 109.843 23.5 109.843 16.6667C109.76 9.75002 104.193 4.16669 97.3794 4.16669ZM101.035 16.6667C101.035 19.5 98.7088 21.8334 95.8838 21.8334H87.3257V11.5H95.8838C98.7088 11.5 101.035 13.8334 101.035 16.6667Z" fill="white"/>
<path d="M43.7874 4.16669V35.25H52.5948V11.5H64.6426V35.25H73.3669V4.16669H43.7874Z" fill="white"/>
<path d="M39.2176 4.16669H20.8551L2.49265 35.25H12.214L15.8699 29.0834H30.4103V35.25H39.2176V4.16669ZM20.1904 21.8334L30.4103 4.50002V21.8334H20.1904Z" fill="white"/>
</svg>
